<?xml version="1.0" encoding="iso-8859-1"?>
<!-- Generator: Adobe Illustrator 21.1.0, SVG Export Plug-In . SVG Version: 6.00 Build 0)  -->
<svg version="1.1" id="Layer_1" xmlns="http://www.w3.org/2000/svg" xmlns:xlink="http://www.w3.org/1999/xlink" x="0px" y="0px"
	 viewBox="0 0 100.353 100.353" style="enable-background:new 0 0 100.353 100.353;" xml:space="preserve">
<g>
	<path d="M16.967,59.01H29.21c0.829,0,1.5-0.672,1.5-1.5s-0.671-1.5-1.5-1.5H18.76c0.202-0.87,0.501-1.849,0.903-2.517
		c0.732-1.221,2.689-2.798,3.425-3.335c0.944-0.742,1.799-1.305,2.553-1.802c2.046-1.349,3.814-2.513,3.814-5.452
		c0-3.789-3.083-6.871-6.871-6.871c-3.791,0-6.875,3.083-6.875,6.871c0,0.829,0.671,1.5,1.5,1.5s1.5-0.671,1.5-1.5
		c0-2.135,1.738-3.871,3.875-3.871c2.135,0,3.871,1.736,3.871,3.871c0,1.271-0.511,1.66-2.464,2.947
		c-0.764,0.503-1.714,1.129-2.712,1.915c-0.305,0.222-3.011,2.222-4.188,4.183c-1.184,1.97-1.574,5.042-1.614,5.386
		c-0.05,0.426,0.084,0.853,0.369,1.173C16.13,58.826,16.539,59.01,16.967,59.01z"/>
	<path d="M31.911,53.514h7.784v4.108c0,0.828,0.671,1.5,1.5,1.5s1.5-0.672,1.5-1.5v-4.108h2.352c0.829,0,1.5-0.672,1.5-1.5
		s-0.671-1.5-1.5-1.5h-2.352V37.65c0-0.665-0.438-1.25-1.076-1.438c-0.636-0.188-1.323,0.066-1.684,0.624l-9.284,14.364
		c-0.298,0.462-0.32,1.049-0.058,1.531S31.362,53.514,31.911,53.514z M39.695,42.734v7.78h-5.028L39.695,42.734z"/>
	<path d="M49.21,69.236c0.138,0.039,0.276,0.058,0.413,0.058c0.652,0,1.253-0.429,1.441-1.088l9.429-33.003
		c0.228-0.796-0.233-1.627-1.03-1.854c-0.795-0.225-1.627,0.234-1.854,1.03L48.18,67.381C47.952,68.178,48.414,69.008,49.21,69.236z
		"/>
	<path d="M67.202,40.082h9.767l-4.162,7.06H68.89c-0.828,0-1.5,0.671-1.5,1.5s0.672,1.5,1.5,1.5h2.148l-4.594,7.792
		c-0.421,0.714-0.184,1.633,0.53,2.054c0.239,0.142,0.501,0.208,0.761,0.208c0.513,0,1.014-0.264,1.293-0.738l5.492-9.315h3.764
		c0.828,0,1.5-0.671,1.5-1.5s-0.672-1.5-1.5-1.5h-1.995l4.598-7.798c0.273-0.464,0.277-1.039,0.011-1.506
		c-0.268-0.467-0.765-0.756-1.303-0.756H67.202c-0.828,0-1.5,0.671-1.5,1.5S66.374,40.082,67.202,40.082z"/>
	<path d="M95.75,18.618H3.767c-0.829,0-1.5,0.671-1.5,1.5v59.995c0,0.828,0.671,1.5,1.5,1.5H95.75c0.828,0,1.5-0.672,1.5-1.5V20.118
		C97.25,19.289,96.578,18.618,95.75,18.618z M94.25,78.613H5.267V21.618H94.25V78.613z"/>
</g>
</svg>
